<svg viewBox="0 0 149.18 92.34" xmlns="http://www.w3.org/2000/svg">
  <path d="m44 56.4c0-3.08.82-4.83 2.57-6.17 1.54-1.23 3.81-1.34 9-4.11 0 2.26-.1 5.14-.1 9.77 0 5.55-3.19 7.61-6.68 7.61-3.08 0-4.79-2.67-4.79-7.1zm.27-21.4c.1-4.83 1.44-7.61 6.07-7.61 3.7 0 5.24 2.16 5.24 5.55 0 4.21-.93 5-6 6.37-4.58 1.26-10.76 2.29-14.88 4.55s-6.79 7.71-6.79 14.19c0 12 5.45 17 14.81 17 5.55 0 10.8-2.88 13.06-7.82h.22a25.78 25.78 0 0 0 .93 6.38h16.07c-2-2.47-2-7.81-2-12v-28.61c0-11.72-6.07-16.45-19.74-16.45-6.89 0-11.62.92-15.53 3.6s-6.17 7.26-6.27 14.85z"/>
  <path d="m95.69 55.89a15.93 15.93 0 0 0 1.13 6.27c.93 1.54 2.47 2.57 5.14 2.57 3.91 0 6-2.47 6-5.66 0-2.57-1.24-5-6.38-6.79-13.7-4.61-20.28-7.28-20.28-19.01 0-11.11 7.81-16.76 21.18-16.76 15.63 0 20.15 7.61 20.15 15.63v1.86h-14.81v-1c0-4.83-2-6.17-5.45-6.17-4.42 0-5.65 2.16-5.65 5.14 0 9.87 26.63 3.29 26.63 24.88 0 11.21-7.51 18.2-21.28 18.2-14.91 0-21.18-5.55-21.18-16.66v-2.5z"/>
  <path d="m0 0h26v11.52h-10.58v69.3h10.58v11.52h-26z"/>
  <path d="m123.16 80.82h10.59v-69.3h-10.59v-11.52h26v92.34h-26z"/>
</svg>